<svg width="53" height="35" viewBox="0 0 53 35" fill="none" xmlns="http://www.w3.org/2000/svg">
<path d="M19.58 2V32.9989H10.2253C3.43845 32.9989 -0.596816 22.5437 7.47391 16.6741C0.136886 9.52045 5.45608 2.36685 10.7756 2H19.58Z" fill="#D9D9D9"/>
<path d="M23.4156 8.26794C25.447 3.69698 28.2727 2.2143 34.6401 2V33C28.8021 32.3339 25.3804 31.837 23.1415 25.4587C22.7244 24.2705 22.5801 23.0112 22.5801 21.7588V12.7485C22.5801 11.2174 22.7887 9.67881 23.4156 8.26794Z" fill="#D9D9D9"/>
<path d="M37.6406 16V2C45.6673 3.35092 48.4614 6.21099 49.6406 16H37.6406Z" fill="#D9D9D9"/>
<path d="M49.6406 19V33C41.6142 31.6491 38.8201 28.7891 37.6406 19H49.6406Z" fill="#D9D9D9"/>
</svg>
